<?xml version="1.0" standalone="no"?><!DOCTYPE svg PUBLIC "-//W3C//DTD SVG 1.1//EN" "http://www.w3.org/Graphics/SVG/1.1/DTD/svg11.dtd"><svg t="1557297870673" class="icon" style="" viewBox="0 0 1024 1024" version="1.1" xmlns="http://www.w3.org/2000/svg" p-id="4511" xmlns:xlink="http://www.w3.org/1999/xlink" width="64" height="64"><defs><style type="text/css"></style></defs><path d="M955.733333 170.666667h-150.186666l-40.96-78.506667c-17.066667-34.133333-51.2-58.026667-92.16-58.026667h-324.266667c-37.546667 0-71.68 20.48-88.746667 58.026667L218.453333 170.666667H68.266667c-17.066667 0-34.133333 17.066667-34.133334 34.133333s17.066667 34.133333 34.133334 34.133333h68.266666v648.533334c0 58.026667 44.373333 102.4 102.4 102.4h546.133334c58.026667 0 102.4-44.373333 102.4-102.4V238.933333h68.266666c17.066667 0 34.133333-17.066667 34.133334-34.133333s-17.066667-34.133333-34.133334-34.133333zM317.44 122.88c6.826667-13.653333 20.48-20.48 30.72-20.48h324.266667c13.653333 0 23.893333 6.826667 30.72 20.48l27.306666 47.786667H293.546667l23.893333-47.786667zM819.2 887.466667c0 20.48-13.653333 34.133333-34.133333 34.133333H238.933333c-20.48 0-34.133333-13.653333-34.133333-34.133333V238.933333h614.4v648.533334z" fill="#C6C6C6" p-id="4512"></path><path d="M546.133333 409.6v341.333333c0 17.066667-17.066667 34.133333-34.133333 34.133334s-34.133333-17.066667-34.133333-34.133334V409.6c0-17.066667 17.066667-34.133333 34.133333-34.133333s34.133333 17.066667 34.133333 34.133333zM409.6 409.6v341.333333c0 17.066667-17.066667 34.133333-34.133333 34.133334s-34.133333-17.066667-34.133334-34.133334V409.6c0-17.066667 17.066667-34.133333 34.133334-34.133333s34.133333 17.066667 34.133333 34.133333zM682.666667 409.6v341.333333c0 17.066667-17.066667 34.133333-34.133334 34.133334s-34.133333-17.066667-34.133333-34.133334V409.6c0-17.066667 17.066667-34.133333 34.133333-34.133333s34.133333 17.066667 34.133334 34.133333z" fill="#C6C6C6" p-id="4513"></path></svg>