<?xml version="1.0" standalone="no"?><!DOCTYPE svg PUBLIC "-//W3C//DTD SVG 1.1//EN" "http://www.w3.org/Graphics/SVG/1.1/DTD/svg11.dtd"><svg t="1557131387644" class="icon" style="" viewBox="0 0 1024 1024" version="1.1" xmlns="http://www.w3.org/2000/svg" p-id="17133" xmlns:xlink="http://www.w3.org/1999/xlink" width="64" height="64"><defs><style type="text/css"></style></defs><path d="M511.701333 42.666667C253.098667 42.666667 42.666667 253.098667 42.666667 511.701333a468.906667 468.906667 0 0 0 469.034666 469.034667c258.645333 0 469.034667-210.432 469.034667-469.034667S770.346667 42.666667 511.701333 42.666667z m0 893.397333a423.68 423.68 0 0 1-272.298666-99.669333 276.053333 276.053333 0 0 1 273.408-235.349334 275.626667 275.626667 0 0 1 273.066666 231.210667c0.085333 0.768 0.554667 1.365333 0.768 2.133333a422.186667 422.186667 0 0 1-274.944 101.674667z m0-379.733333A149.248 149.248 0 0 1 362.666667 407.338667a149.248 149.248 0 0 1 149.077333-149.077334 149.248 149.248 0 0 1 149.077333 149.077334 149.248 149.248 0 0 1-149.077333 149.077333z m312.448 241.493333a319.445333 319.445333 0 0 0-211.498666-225.450667 193.578667 193.578667 0 0 0 92.8-165.077333 193.962667 193.962667 0 0 0-193.706667-193.706667 193.962667 193.962667 0 0 0-193.792 193.706667c0 70.229333 37.674667 131.626667 93.738667 165.589333a320.426667 320.426667 0 0 0-210.56 227.2c-3.370667-3.626667-7.04-6.912-10.282667-10.666666a424.106667 424.106667 0 0 1-103.509333-277.76c0-233.941333 190.378667-424.32 424.362666-424.32 234.026667 0 424.362667 190.378667 424.362667 424.362666 0 110.336-42.666667 210.602667-111.914667 286.165334z" p-id="17134" fill="#8a8a8a"></path></svg>